<?xml version="1.0" encoding="UTF-8" standalone="no"?><!DOCTYPE svg PUBLIC "-//W3C//DTD SVG 1.1//EN" "http://www.w3.org/Graphics/SVG/1.1/DTD/svg11.dtd"><svg width="100%" height="100%" viewBox="0 0 144 144" version="1.1" xmlns="http://www.w3.org/2000/svg" xmlns:xlink="http://www.w3.org/1999/xlink" xml:space="preserve" xmlns:serif="http://www.serif.com/" style="fill-rule:evenodd;clip-rule:evenodd;stroke-linejoin:round;stroke-miterlimit:2;"><g transform="matrix(13.5641,0,0,13.5641,-924.912,-593.765)"><path d="M77.015,52.411C76.216,53.112 75.044,53.463 73.5,53.463C71.955,53.463 70.782,53.112 69.981,52.411C69.18,51.71 68.78,50.6 68.78,49.08C68.78,47.561 69.18,46.451 69.981,45.752C70.782,45.053 71.955,44.703 73.5,44.703C75.044,44.703 76.216,45.053 77.015,45.752C77.814,46.451 78.213,47.561 78.213,49.08C78.213,50.6 77.814,51.71 77.015,52.411ZM75.413,46.988C75.018,46.52 74.38,46.285 73.5,46.285C72.619,46.285 71.98,46.52 71.583,46.988C71.187,47.457 70.989,48.155 70.989,49.083C70.989,50.011 71.187,50.708 71.583,51.175C71.98,51.642 72.619,51.875 73.5,51.875C74.38,51.875 75.018,51.642 75.413,51.175C75.807,50.708 76.004,50.011 76.004,49.083C76.004,48.155 75.807,47.457 75.413,46.988Z" style="fill:rgb(58,61,66);fill-rule:nonzero;"/></g><g transform="matrix(14.1411,0,0,14.1411,-668.298,-571.453)"><path d="M48.296,49.704C48.101,49.704 47.992,49.616 47.968,49.44C47.968,49.354 48.009,49.258 48.091,49.153L51.044,45.385L48.261,41.858C48.179,41.756 48.138,41.661 48.138,41.571C48.138,41.391 48.245,41.301 48.46,41.301L49.72,41.301C50.111,41.301 50.452,41.487 50.745,41.858L52.351,43.897L53.956,41.858C54.245,41.491 54.587,41.305 54.982,41.301L56.242,41.301C56.456,41.301 56.564,41.391 56.564,41.571C56.564,41.657 56.523,41.752 56.441,41.858L53.658,45.385L56.611,49.153C56.693,49.254 56.734,49.336 56.734,49.399C56.734,49.461 56.726,49.506 56.71,49.534C56.667,49.647 56.566,49.704 56.406,49.704L55.158,49.704C54.767,49.704 54.427,49.52 54.138,49.153L52.351,46.874L50.564,49.153C50.275,49.52 49.935,49.704 49.544,49.704L48.296,49.704Z" style="fill:rgb(255,63,87);fill-rule:nonzero;"/></g></svg>