<svg width="16" height="16" viewBox="0 0 16 16" fill="none" xmlns="http://www.w3.org/2000/svg">
<g clip-path="url(#clip0_13_33)">
<path d="M4.02369 3.75874C5.17459 3.20039 6.50063 2.98619 7.80188 3.14858C9.09711 3.31023 10.2979 3.83631 11.2252 4.6478L13.0099 6.12645V4.16134C13.0099 3.86679 13.2813 3.62801 13.6161 3.62801C13.9509 3.62804 14.2223 3.86682 14.2223 4.16134V7.36135C14.2223 7.65588 13.9509 7.89465 13.6161 7.89469H9.97911C9.64433 7.89469 9.37294 7.6559 9.37294 7.36135C9.37294 7.0668 9.64433 6.82802 9.97911 6.82802H12.088L10.3938 5.42437C10.3893 5.42068 10.3851 5.41671 10.3808 5.41291C9.63752 4.75859 8.67267 4.33449 7.63169 4.20457C6.59068 4.07466 5.52987 4.24617 4.60913 4.69286C3.68845 5.13953 2.95763 5.83728 2.52691 6.68114C2.0962 7.52504 1.98892 8.46929 2.22117 9.37151C2.45343 10.2738 3.01275 11.0852 3.81472 11.6835C4.61667 12.2817 5.61781 12.6344 6.66738 12.6884C7.71702 12.7425 8.75821 12.4949 9.63399 11.983C10.5098 11.4711 11.1727 10.7227 11.5229 9.85042C11.6345 9.57269 11.981 9.42704 12.2966 9.52516C12.6122 9.62332 12.7775 9.92795 12.666 10.2056C12.2282 11.2959 11.3997 12.2316 10.305 12.8715C9.21025 13.5114 7.90868 13.8208 6.59664 13.7533C5.28462 13.6858 4.03313 13.2448 3.03067 12.497C2.02821 11.7492 1.32905 10.735 1.03872 9.60719C0.748402 8.47939 0.882435 7.29904 1.42083 6.24416C1.95923 5.18932 2.87282 4.31709 4.02369 3.75874Z" fill="white"/>
<path d="M3.80496 3.30862C5.04502 2.70703 6.46902 2.47839 7.86356 2.65237C9.24685 2.82501 10.5378 3.38689 11.5432 4.26273L12.51 5.06253V4.16116C12.5102 3.53237 13.0677 3.12796 13.6165 3.12796C14.1651 3.12817 14.7218 3.53246 14.722 4.16116V7.36136C14.722 7.99017 14.1651 8.39435 13.6165 8.39456H9.97879C9.46433 8.39442 8.94239 8.03913 8.87918 7.47659L8.87332 7.36136L8.87918 7.24612C8.94239 6.68359 9.46432 6.3283 9.97879 6.32816H10.7005L10.0745 5.8096C10.0652 5.8019 10.0576 5.79526 10.054 5.79202L10.0501 5.78812C9.38679 5.20425 8.51714 4.81945 7.56961 4.7012C6.62208 4.58297 5.65895 4.73922 4.82742 5.14261C3.99629 5.54584 3.34914 6.16927 2.97195 6.90823C2.59566 7.6455 2.50408 8.46517 2.70535 9.2471C2.907 10.0302 3.39601 10.7469 4.11356 11.2823C4.83196 11.8181 5.73682 12.1402 6.69266 12.1895C7.64872 12.2387 8.59357 12.0127 9.38211 11.5518C10.1701 11.0912 10.7534 10.4249 11.0589 9.66409C11.2825 9.10708 11.9209 8.88527 12.4446 9.04788H12.4456C12.9881 9.21689 13.3692 9.79568 13.1302 10.3916C12.6477 11.5933 11.7394 12.6116 10.5569 13.3028C9.37493 13.9936 7.97614 14.3253 6.57059 14.253C5.1651 14.1806 3.81753 13.7075 2.73172 12.8975C1.64515 12.0869 0.875895 10.9782 0.554962 9.73148C0.233754 8.48346 0.383065 7.17809 0.975861 6.01663C1.56776 4.85713 2.56482 3.91036 3.80496 3.30862Z" stroke="#37050B" stroke-opacity="0.3" stroke-linecap="round" stroke-linejoin="round"/>
</g>
<defs>
<clipPath id="clip0_13_33">
<rect width="16" height="16" fill="white"/>
</clipPath>
</defs>
</svg>
