<svg width="17" height="16" viewBox="0 0 17 16" fill="none" xmlns="http://www.w3.org/2000/svg">
<g clip-path="url(#clip0_13_22)">
<path d="M8.70569 3.16253C10.0069 3.00145 11.3323 3.21671 12.4822 3.77608C13.6323 4.33551 14.5448 5.20879 15.0818 6.26412C15.6188 7.31941 15.7516 8.49974 15.46 9.62717C15.1685 10.7547 14.4682 11.7683 13.4651 12.5152C12.462 13.2621 11.2102 13.7019 9.89835 13.7684C8.58649 13.8348 7.28551 13.5244 6.19164 12.8837C5.09776 12.243 4.27021 11.3066 3.83355 10.216C3.72239 9.93819 3.8881 9.63363 4.20378 9.53576C4.51945 9.43792 4.86552 9.5838 4.97679 9.86155C5.32611 10.734 5.98833 11.4831 6.86344 11.9957C7.73852 12.5082 8.77933 12.7567 9.8288 12.7035C10.8782 12.6503 11.8796 12.2984 12.682 11.7009C13.4845 11.1034 14.0448 10.2924 14.278 9.39045C14.5113 8.48851 14.4049 7.54428 13.9753 6.70006C13.5457 5.85582 12.816 5.15722 11.896 4.70968C10.976 4.26214 9.91537 4.08991 8.87438 4.21879C7.83347 4.34769 6.86839 4.77077 6.12446 5.42427C6.12014 5.42807 6.1156 5.43179 6.11114 5.43547L4.4139 6.83887H6.52044C6.85517 6.83887 7.12653 7.07765 7.12653 7.3722C7.12651 7.66675 6.85516 7.90554 6.52044 7.90554H2.88387C2.54914 7.90554 2.27779 7.66675 2.27777 7.3722V4.17218C2.27777 3.87762 2.54913 3.63884 2.88387 3.63884C3.2186 3.63884 3.48996 3.87762 3.48996 4.17218V6.13912L5.28102 4.65812C6.20921 3.84763 7.4105 3.32288 8.70569 3.16253Z" fill="white"/>
<path d="M8.64398 2.66617C10.0383 2.49355 11.4615 2.72367 12.7006 3.32632C13.9402 3.92931 14.9373 4.87698 15.5278 6.03726C16.119 7.19917 16.2664 8.50449 15.9438 9.75211C15.6215 10.9984 14.8513 12.1066 13.7641 12.9162C12.6775 13.7252 11.3287 14.1965 9.92328 14.2677C8.51806 14.3388 7.1199 14.0073 5.9389 13.3156C4.75725 12.6235 3.85082 11.6035 3.36957 10.4015C3.13096 9.80505 3.51321 9.22608 4.05609 9.05777C4.54725 8.90575 5.13815 9.0925 5.39398 9.57535L5.44086 9.67593L5.56781 9.95621C5.89426 10.6 6.42669 11.161 7.11566 11.5646C7.90343 12.026 8.84739 12.2526 9.80316 12.2043C10.7589 12.1558 11.6643 11.8353 12.3832 11.3C13.1016 10.7651 13.5919 10.0479 13.7944 9.2648C13.9963 8.48335 13.9049 7.6643 13.5297 6.92691C13.1535 6.18755 12.5076 5.56329 11.6772 5.15933C10.8465 4.75524 9.88357 4.59771 8.93597 4.715C7.98844 4.83233 7.1185 5.21671 6.45453 5.79996C6.44382 5.80936 6.43262 5.8184 6.43011 5.82047L5.80316 6.33902H6.51996C7.06884 6.33902 7.6264 6.74336 7.6264 7.37222L7.62054 7.48746C7.55732 8.05004 7.03457 8.40543 6.51996 8.40543H2.88422C2.33531 8.40543 1.77781 8.00102 1.77777 7.37222V4.17203C1.77786 3.54325 2.33538 3.13882 2.88422 3.13882C3.43294 3.139 3.9896 3.54339 3.98969 4.17203V5.07632L4.96234 4.27261C5.96873 3.39766 7.26059 2.83749 8.64398 2.66617Z" stroke="#37050B" stroke-opacity="0.3" stroke-linecap="round" stroke-linejoin="round"/>
</g>
<defs>
<clipPath id="clip0_13_22">
<rect width="16" height="16" fill="white" transform="translate(0.5)"/>
</clipPath>
</defs>
</svg>
