<svg width="24" height="24" viewBox="0 0 24 24" xmlns="http://www.w3.org/2000/svg">
<path fill="#3d3f44" d="M12.3085 4.52189C14.2603 4.28027 16.2484 4.60316 17.9734 5.44221C19.6984 6.28136 21.0672 7.59128 21.8727 9.17427C22.6782 10.7572 22.8774 12.5277 22.4401 14.2188C22.0027 15.9101 20.9523 17.4305 19.4476 18.5509C17.943 19.6713 16.0653 20.3309 14.0975 20.4306C12.1297 20.5303 10.1783 20.0647 8.53746 19.1037C6.89664 18.1426 5.65531 16.738 5.00033 15.1021C4.83359 14.6854 5.08215 14.2285 5.55567 14.0817C6.02918 13.935 6.54828 14.1538 6.71518 14.5704C7.23917 15.8791 8.2325 17.0028 9.54515 17.7716C10.8578 18.5404 12.419 18.9131 13.9932 18.8333C15.5674 18.7536 17.0693 18.2257 18.273 17.3294C19.4768 16.4331 20.3172 15.2167 20.6671 13.8638C21.0169 12.5108 20.8573 11.0945 20.2129 9.82819C19.5685 8.56182 18.474 7.51392 17.094 6.84261C15.7139 6.1713 14.1231 5.91296 12.5616 6.10628C11.0002 6.29962 9.55259 6.93425 8.43669 7.9145C8.4302 7.9202 8.4234 7.92577 8.41672 7.93129L5.87085 10.0364H9.03065C9.53276 10.0364 9.9398 10.3946 9.9398 10.8364C9.93977 11.2782 9.53274 11.6364 9.03065 11.6364H3.5758C3.07371 11.6364 2.66668 11.2782 2.66666 10.8364V6.03636C2.66666 5.59453 3.07369 5.23635 3.5758 5.23635C4.0779 5.23635 4.48494 5.59453 4.48494 6.03636V8.98677L7.17153 6.76527C8.56382 5.54954 10.3657 4.76242 12.3085 4.52189Z"/>
</svg>
