<svg width="24" height="24" viewBox="0 0 24 24" xmlns="http://www.w3.org/2000/svg">
<path d="M6.03551 5.42358C7.76188 4.58606 9.75093 4.26477 11.7028 4.50835C13.6457 4.75081 15.4468 5.53994 16.8378 6.75718L19.5149 8.97516V6.02749C19.5149 5.58567 19.922 5.22749 20.4242 5.22749C20.9263 5.22754 21.3334 5.5857 21.3334 6.02749V10.8275C21.3334 11.2693 20.9263 11.6275 20.4242 11.6275H14.9686C14.4665 11.6275 14.0594 11.2693 14.0594 10.8275C14.0594 10.3857 14.4665 10.0275 14.9686 10.0275H18.1319L15.5906 7.92203C15.584 7.9165 15.5776 7.91055 15.5711 7.90484C14.4563 6.92336 13.009 6.28721 11.4475 6.09234C9.886 5.89746 8.29479 6.15473 6.91369 6.82476C5.53265 7.49477 4.43643 8.54139 3.79035 9.80719C3.14428 11.073 2.98337 12.4894 3.33173 13.8427C3.68012 15.1961 4.51911 16.4133 5.72207 17.3107C6.92498 18.208 8.4267 18.7371 10.0011 18.8181C11.5755 18.8992 13.1373 18.5278 14.451 17.7599C15.7646 16.9921 16.759 15.8695 17.2844 14.5611C17.4517 14.1445 17.9714 13.926 18.4449 14.0732C18.9183 14.2205 19.1662 14.6774 18.999 15.0939C18.3423 16.7294 17.0995 18.1329 15.4575 19.0928C13.8154 20.0526 11.863 20.5167 9.89495 20.4154C7.92692 20.3141 6.04968 19.6527 4.54599 18.531C3.04229 17.4093 1.99356 15.888 1.55807 14.1963C1.12259 12.5046 1.32364 10.734 2.13124 9.15172C2.93882 7.56945 4.30921 6.26111 6.03551 5.42358Z" />
</svg>
